<svg xmlns="http://www.w3.org/2000/svg" xmlns:xlink="http://www.w3.org/1999/xlink" viewBox="0 0 59.133 66.133" fill="#fff" fill-rule="evenodd" stroke="#000" stroke-linecap="round" stroke-linejoin="round"><use xlink:href="#A" x="1.067" y="1.067"/><symbol id="A" overflow="visible"><g stroke="none" fill="#e10098" fill-rule="nonzero"><path d="M5.184 48.776L2.837 47.42 29.01 2.1l2.347 1.357z"/><path d="M2.297 43.796h52.348V46.5H2.297z"/><path d="M29.516 60.44L3.334 45.324l1.357-2.347 26.182 15.117zm22.746-39.403L26.078 5.924l1.357-2.347 26.182 15.117z"/><path d="M4.698 21.03L3.34 18.683l26.206-15.12 1.357 2.347z"/><path d="M51.78 48.775L25.604 3.442l2.347-1.357 26.176 45.333zM4.373 16.882h2.714v30.234H4.373zm45.5 0h2.714v30.234h-2.714z"/><path d="M29.056 59.29l-1.184-2.052L50.645 44.09l1.184 2.052z"/><path d="M56.18 48a5.72 5.72 0 0 1-7.795 2.093 5.72 5.72 0 0 1-2.093-7.795 5.72 5.72 0 0 1 7.795-2.093c2.746 1.585 3.678 5.067 2.09 7.795M10.65 21.704a5.72 5.72 0 0 1-7.795 2.093 5.72 5.72 0 0 1-2.093-7.797 5.72 5.72 0 0 1 7.795-2.093 5.72 5.72 0 0 1 2.093 7.795M.78 48a5.72 5.72 0 0 1 2.093-7.795 5.72 5.72 0 0 1 7.795 2.093 5.72 5.72 0 0 1-2.093 7.795C5.828 51.66 2.344 50.732.78 48M46.3 21.706a5.72 5.72 0 0 1 2.093-7.795 5.72 5.72 0 0 1 7.795 2.093 5.72 5.72 0 0 1-2.093 7.795 5.72 5.72 0 0 1-7.795-2.093M28.48 64c-2.308 0-4.388-1.4-5.27-3.522s-.394-4.586 1.238-6.217 4.086-2.12 6.218-1.235 3.52 2.964 3.52 5.272a5.72 5.72 0 0 1-5.705 5.702m0-52.59c-1.514.002-2.966-.598-4.036-1.668s-1.67-2.523-1.668-4.036c0-2.038 1.087-3.92 2.852-4.94s3.94-1.02 5.704 0 2.852 2.902 2.852 4.94c.002 1.513-.6 2.964-1.668 4.034s-2.52 1.67-4.034 1.668"/></g></symbol></svg>