<svg xmlns="http://www.w3.org/2000/svg" xmlns:xlink="http://www.w3.org/1999/xlink" viewBox="0 0 85 85" fill="#fff" fill-rule="evenodd" stroke="#000" stroke-linecap="round" stroke-linejoin="round"><use xlink:href="#A" x="2.5" y="2.5"/><symbol id="A" overflow="visible"><g fill="#8a4182" stroke="none"><path d="M36.9 33.125h6.196l1.54-2.12V14.407h-9.274v16.6l1.538 2.118m-3.992 7.405l1.914-5.892-1.54-2.12-15.788-5.13-2.865 8.82 15.8 5.13 2.5-.8m5.807 6.087l-5.013-3.642-2.5.8-9.757 13.43 7.503 5.45 9.758-13.43v-2.617m7.583-3.634l-5.014 3.642.001 2.62 9.757 13.43 7.503-5.45-9.76-13.43-2.5-.8"/><path d="M45.177 34.635l1.915 5.893 2.5.8 15.788-5.13-2.866-8.82-15.788 5.13-1.54 2.117M40 0C17.945 0 0 17.94 0 39.994 0 62.054 17.945 80 40 80s40-17.946 40-40.006C80 17.94 62.057 0 40 0h.002zm0 8.098c17.616 0 31.9 14.278 31.9 31.895C71.9 57.616 57.616 71.9 40 71.9c-18.618 0-31.9-14.284-31.9-31.907C8.1 22.376 22.382 8.098 40 8.098h0zm24.23 40.785l-12-3.9.793-2.444 12 3.9-.793 2.444M48.923 29.617l-2.08-1.5L54.26 17.91l2.08 1.5-7.417 10.208m-17.717-.103L23.8 19.316l2.08-1.5 7.416 10.208-2.08 1.5M15.722 48.73l-.794-2.444 12-3.898.794 2.444-12 3.898m22.914 16.765h2.57v-12.62h-2.57v12.62z"/></g></symbol></svg>