<svg xmlns="http://www.w3.org/2000/svg" xmlns:xlink="http://www.w3.org/1999/xlink" viewBox="0 0 81 80" fill="#fff" fill-rule="evenodd" stroke="#000" stroke-linecap="round" stroke-linejoin="round"><use xlink:href="#A" x=".5" y=".5"/><symbol id="A" overflow="visible"><path d="M73.7 60.737c-4.353-.1-7.726.327-10.556 1.524-.816.326-2.122.327-2.23 1.36.436.436.5 1.143.87 1.74.653 1.088 1.795 2.557 2.83 3.32 1.142.87 2.285 1.74 3.482 2.503 2.122 1.306 4.516 2.068 6.584 3.373 1.197.76 2.394 1.74 3.6 2.557.6.435.98 1.142 1.74 1.415v-.163c-.38-.5-.5-1.197-.87-1.74-.544-.544-1.088-1.034-1.632-1.578-1.578-2.122-3.537-3.972-5.66-5.495-1.74-1.197-5.55-2.83-6.257-4.843l-.1-.1c1.197-.1 2.612-.544 3.754-.87 1.85-.5 3.537-.38 5.44-.87.87-.218 1.74-.5 2.612-.762v-.5c-.98-.98-1.687-2.285-2.72-3.2-2.775-2.395-5.822-4.734-8.978-6.692-1.687-1.088-3.863-1.796-5.66-2.72-.653-.327-1.74-.5-2.122-1.034-.98-1.197-1.524-2.775-2.23-4.2-1.577-2.993-3.1-6.3-4.462-9.467-.98-2.122-1.578-4.244-2.775-6.203-5.604-9.25-11.698-14.854-21.057-20.35-2-1.142-4.403-1.642-6.96-2.232l-4.08-.218c-.87-.38-1.74-1.415-2.503-1.904C10.63 1.428 2.63-2.815.344 2.8-1.126 6.327 2.52 9.8 3.772 11.605c.925 1.25 2.122 2.666 2.775 4.08.38.924.5 1.904.87 2.884.87 2.394 1.687 5.06 2.83 7.3.6 1.142 1.25 2.34 2.013 3.373.435.598 1.197.87 1.36 1.85-.762 1.088-.816 2.72-1.252 4.08-1.96 6.148-1.197 13.766 1.578 18.282.87 1.36 2.938 4.353 5.713 3.2 2.448-.98 1.904-4.08 2.612-6.8.164-.653.055-1.088.38-1.523v.1l2.23 4.516c1.687 2.666 4.625 5.44 7.073 7.3 1.306.98 2.34 2.666 3.972 3.265v-.164h-.1c-.327-.5-.816-.707-1.25-1.088-.98-.98-2.068-2.176-2.83-3.265-2.285-3.047-4.3-6.42-6.094-9.903-.87-1.687-1.632-3.537-2.34-5.223-.327-.653-.327-1.632-.87-1.96-.816 1.197-2.013 2.23-2.612 3.7-1.033 2.34-1.142 5.223-1.523 8.216-.217.055-.1 0-.218.1-1.74-.436-2.34-2.23-2.993-3.754-1.632-3.863-1.904-10.066-.5-14.527.38-1.143 2.013-4.734 1.36-5.822-.326-1.034-1.415-1.632-2.013-2.448-.707-1.034-1.47-2.34-1.96-3.482-1.306-3.047-1.96-6.42-3.373-9.468-.653-1.415-1.795-2.884-2.72-4.2C4.86 8.776 3.717 7.742 2.9 6c-.272-.598-.653-1.578-.218-2.23.1-.435.326-.598.762-.707.707-.6 2.72.163 3.428.5 2.013.816 3.7 1.578 5.387 2.72.762.544 1.578 1.578 2.557 1.85h1.143c1.74.38 3.7.1 5.332.598 2.884.925 5.495 2.285 7.835 3.754 7.128 4.516 13.004 10.937 16.976 18.608.653 1.25.925 2.394 1.523 3.7 1.143 2.666 2.557 5.387 3.7 7.998 1.142 2.557 2.23 5.17 3.863 7.3.816 1.142 4.08 1.74 5.55 2.34 1.088.5 2.775.925 3.754 1.523 1.85 1.142 3.7 2.448 5.44 3.7.87.653 3.6 2.013 3.754 3.1h0zM18.2 13.455a8.61 8.61 0 0 0-2.231.272v.1h.1c.436.87 1.197 1.47 1.74 2.23l1.252 2.612.1-.1c.762-.544 1.143-1.415 1.143-2.72-.327-.38-.38-.762-.653-1.143-.326-.544-1.034-.816-1.47-1.252h0z" stroke="none" fill="#00546b" fill-rule="nonzero"/></symbol></svg>