<svg xmlns="http://www.w3.org/2000/svg" xmlns:xlink="http://www.w3.org/1999/xlink" viewBox="0 0 79 81" fill="#fff" fill-rule="evenodd" stroke="#000" stroke-linecap="round" stroke-linejoin="round"><use xlink:href="#A" x=".5" y=".5"/><symbol id="A" overflow="visible"><g stroke="none" fill-rule="nonzero"><path d="M77.39 47.922c-.466-1.412-1.688-2.396-3.268-2.632-.745-.11-1.598-.064-2.608.144-1.76.363-3.065.5-4.018.528 3.596-6.072 6.52-12.997 8.204-19.515 2.722-10.54 1.268-15.34-.432-17.513-4.5-5.748-11.063-8.837-18.98-8.93-4.224-.052-7.933.782-9.867 1.382-1.8-.318-3.738-.495-5.77-.528-3.81-.06-7.174.77-10.05 2.476-1.592-.538-4.147-1.297-7.098-1.782C16.56.41 10.968 1.3 6.876 4.2 1.922 7.69-.375 13.77.05 22.262c.135 2.696 1.643 10.9 4.018 18.68 1.365 4.472 2.82 8.185 4.326 11.038 2.135 4.046 4.42 6.428 6.984 7.284 1.438.48 4.05.814 6.797-1.473.348.42.812.84 1.43 1.23.783.494 1.74.897 2.696 1.136 3.446.862 6.674.646 9.427-.56l.04 1.362.06 1.9c.163 4.064.44 7.223 1.26 9.434.045.122.105.307.17.503.41 1.25 1.092 3.346 2.83 4.987 1.8 1.7 3.978 2.22 5.972 2.22 1 0 1.955-.13 2.792-.31 2.984-.64 6.373-1.614 8.824-5.104 2.318-3.3 3.444-8.27 3.648-16.1l.123-1.048.546.048.14.01c3.04.138 6.755-.506 9.037-1.566 1.803-.837 7.582-3.888 6.22-8.007" fill="#000"/><path d="M72.195 48.723c-9.036 1.864-9.657-1.195-9.657-1.195 9.54-14.157 13.53-32.127 10.087-36.525C63.235-.994 46.98 4.68 46.7 4.827l-.087.016c-1.785-.37-3.783-.59-6.03-.628-4.09-.067-7.2 1.072-9.544 2.857 0 0-28.995-11.945-27.647 15.023.287 5.737 8.223 43.4 17.69 32.03 3.46-4.16 6.803-7.68 6.803-7.68 1.66 1.103 3.648 1.666 5.732 1.463l.162-.137c-.05.517-.027 1.022.065 1.62-2.44 2.725-1.722 3.203-6.597 4.206-4.933 1.017-2.035 2.826-.143 3.3 2.294.574 7.6 1.386 11.185-3.633l-.143.573c.956.765 1.626 4.978 1.514 8.797s-.188 6.44.565 8.49 1.503 6.656 7.912 5.282c5.355-1.148 8.13-4.12 8.516-9.08.274-3.526.894-3.005.933-6.158l.497-1.493c.573-4.78.09-6.322 3.4-5.605l.802.07c2.428.1 5.606-.39 7.47-1.257 4.016-1.864 6.398-4.976 2.438-4.158h0" fill="#336791"/><path d="M32.747 24.66c-.814-.113-1.552-.008-1.925.274-.2.16-.275.343-.292.47-.047.336.188.707.333.898.4.542 1.006.915 1.598.997a1.86 1.86 0 0 0 .256.018c.986 0 1.883-.768 1.962-1.335.1-.7-.932-1.183-1.93-1.322m26.974.022h0c-.078-.556-1.068-.715-2.007-.584s-1.848.554-1.772 1.112c.06.434.844 1.174 1.77 1.174.078 0 .157-.005.237-.016.62-.086 1.073-.48 1.288-.705.33-.345.518-.73.484-.98M75.2 48.5c-.345-1.042-1.453-1.377-3.296-.997-5.47 1.13-7.43.347-8.073-.127 4.252-6.478 7.75-14.308 9.637-21.614.894-3.46 1.388-6.675 1.428-9.294.045-2.876-.445-4.988-1.455-6.28-4.07-5.2-10.047-7.992-17.28-8.068-4.973-.056-9.175 1.217-10 1.575a24.81 24.81 0 0 0-5.622-.722c-3.734-.06-6.96.834-9.633 2.655a43.02 43.02 0 0 0-7.828-2.052c-6.342-1.02-11.38-.248-14.978 2.3-4.3 3.04-6.272 8.475-5.888 16.152.13 2.583 1.6 10.53 3.923 18.14 3.057 10.016 6.38 15.686 9.877 16.852a4.42 4.42 0 0 0 1.402.232c1.276 0 2.84-.575 4.466-2.53a160.99 160.99 0 0 1 6.156-6.966c1.375.738 2.884 1.15 4.43 1.2l.01.12-.78.965c-1.07 1.358-1.293 1.64-4.738 2.35-.98.202-3.582.738-3.62 2.563-.04 1.993 3.076 2.83 3.43 2.92 1.238.3 2.43.463 3.568.463 2.766 0 5.2-.9 7.145-2.668-.06 7.106.236 14.107 1.1 16.24.7 1.746 2.406 6.014 7.798 6.014.8 0 1.662-.092 2.62-.297 5.627-1.207 8.07-3.694 9.016-9.177.506-2.93 1.374-9.928 1.782-13.682.862.27 1.97.392 3.17.392 2.5 0 5.387-.53 7.197-1.372 2.033-.944 5.702-3.26 5.037-5.274h0zM61.8 23.147c-.02 1.108-.17 2.114-.333 3.164-.174 1.13-.354 2.297-.4 3.715-.045 1.38.128 2.814.294 4.2.337 2.8.682 5.685-.655 8.53-.208-.37-.408-.772-.592-1.218-.166-.403-.527-1.05-1.027-1.946C57.143 36.107 52.6 27.94 54.92 24.6c.694-.992 2.456-2 6.88-1.463h0zM56.44 4.374c6.482.143 11.6 2.568 15.24 7.207 2.784 3.558-.282 19.75-9.158 33.716l-.27-.34-.112-.14c2.294-3.788 1.845-7.536 1.446-10.86-.164-1.364-.32-2.652-.28-3.86.04-1.283.2-2.382.374-3.446.202-1.3.407-2.667.35-4.265a1.77 1.77 0 0 0 .037-.601c-.144-1.533-1.894-6.12-5.462-10.273-1.95-2.27-4.797-4.813-8.682-6.527 1.67-.346 3.956-.67 6.515-.612h0zM20.167 53.298c-1.793 2.155-3.03 1.742-3.438 1.607-2.653-.885-5.73-6.5-8.444-15.382-2.348-7.693-3.72-15.428-3.83-17.597-.343-6.86 1.32-11.64 4.943-14.2 5.896-4.18 15.6-1.68 19.484-.4l-.17.163c-6.4 6.455-6.24 17.483-6.224 18.157a21.6 21.6 0 0 0 .051 1.135c.1 1.855.315 5.307-.232 9.217-.508 3.633.612 7.2 3.072 9.756.255.266.52.515.795.75a164.06 164.06 0 0 0-6.008 6.814h0zm6.83-9.113c-1.983-2.07-2.884-4.947-2.47-7.896.577-4.13.364-7.727.25-9.66l-.04-.694c.934-.828 5.26-3.146 8.346-2.44 1.408.323 2.266 1.28 2.623 2.93 1.846 8.54.244 12.098-1.043 14.957-.265.6-.516 1.146-.73 1.722l-.166.445c-.42 1.126-.8 2.173-1.053 3.167-2.108-.006-4.16-.907-5.718-2.534h0zM27.32 55.7c-.615-.154-1.17-.42-1.494-.642.27-.128.754-.3 1.6-.474 4.052-.834 4.678-1.423 6.045-3.158.313-.398.67-.85 1.16-1.398.733-.82 1.068-.682 1.676-.43.493.204.972.82 1.167 1.5.092.32.195.93-.143 1.404-2.85 3.998-7.01 3.946-10 3.198h0zm21.207 19.735c-4.957 1.062-6.713-1.467-7.87-4.36-.747-1.867-1.113-10.285-.853-19.582.003-.124-.014-.243-.048-.356a4.51 4.51 0 0 0-.14-.657c-.387-1.353-1.33-2.484-2.462-2.953-.45-.186-1.275-.528-2.267-.274.212-.87.578-1.855.976-2.92l.167-.448a25.75 25.75 0 0 1 .673-1.583c1.347-2.992 3.192-7.1 1.2-16.35-.75-3.468-3.254-5.16-7.05-4.768-2.276.235-4.358 1.154-5.396 1.68a14.68 14.68 0 0 0-.618.33c.3-3.494 1.385-10.024 5.48-14.156 2.58-2.6 6.014-3.886 10.2-3.817 8.246.135 13.534 4.367 16.518 7.893 2.57 3.04 3.964 6.1 4.52 7.75-4.18-.425-7.022.4-8.463 2.46-3.135 4.48 1.715 13.178 4.046 17.358.427.766.796 1.428.912 1.7.76 1.84 1.742 3.067 2.46 3.964.22.275.433.54.596.774-1.266.365-3.54 1.208-3.332 5.422-.167 2.115-1.356 12.016-1.96 15.514-.797 4.62-2.497 6.343-7.28 7.368h0zm20.693-23.68c-1.294.6-3.46 1.052-5.518 1.148-2.273.107-3.43-.255-3.702-.477-.128-2.626.85-2.9 1.884-3.2.163-.046.32-.1.474-.144.095.077.2.154.313.23 1.827 1.206 5.085 1.336 9.685.386l.05-.01c-.62.58-1.682 1.36-3.187 2.058h0z"/></g></symbol></svg>