<svg xmlns="http://www.w3.org/2000/svg" xmlns:xlink="http://www.w3.org/1999/xlink" viewBox="0 0 67.764 74.764" fill="#fff" fill-rule="evenodd" stroke="#000" stroke-linecap="round" stroke-linejoin="round"><use xlink:href="#B" x="4.882" y="4.882"/><defs><linearGradient x1="57.66%" y1="2.08%" x2="57.66%" y2="94.46%" id="A"><stop stop-color="#97d9f6" offset="0%"/><stop stop-color="#0f80cc" offset="92.024%"/></linearGradient></defs><symbol id="B" overflow="visible"><g stroke="none" fill-rule="nonzero"><path d="M45.04 2.927H4.882C2.186 2.927 0 5.113 0 7.81v44.287c0 2.696 2.186 4.882 4.882 4.882h26.362c-.293-13.16 4.198-38.703 13.708-54.1z" fill="#0f80cc"/><path d="M43.477 4.265H4.882a3.47 3.47 0 0 0-3.466 3.466v41.056c8.768-3.368 21.92-6.268 31.02-6.132a282.46 282.46 0 0 1 11.15-38.39z" fill="url(#A)"/><path d="M54.412 1.385C51.658-1.056 48.33-.08 45.04 2.83l-1.562 1.425c-5.624 5.858-10.74 17.008-12.458 25.454a23.23 23.23 0 0 1 1.445 4.159l.215.976.215.996s-.05-.195-.254-.78l-.137-.4c-.028-.072-.057-.144-.088-.215-.37-.85-1.367-2.656-1.826-3.437a85.8 85.8 0 0 0-1.006 3.134c1.29 2.363 2.07 6.405 2.07 6.405s-.068-.264-.4-1.172c-.293-.8-1.718-3.32-1.953-3.905-.586 2.148-.8 3.593-.605 3.944.39.684.78 1.953 1.123 3.163a73.42 73.42 0 0 1 1.289 6.502l.05.605c-.1 2.44-.052 4.887.146 7.323.254 3.056.732 5.682 1.338 7.088l.4-.225c-.976-2.773-1.25-6.395-1.094-10.584.244-6.395 1.71-14.108 4.433-22.144C41.016 18.92 47.382 9.176 53.22 4.528 47.9 9.332 40.704 24.876 38.556 30.626c-2.412 6.444-4.12 12.497-5.155 18.287 1.777-5.428 7.518-7.772 7.518-7.772s2.93-3.476 6.112-8.445l-6.298 1.68-2.03.898s5.175-3.154 9.637-4.59c6.122-9.637 12.693-23.432 6.073-29.3" fill="#003b57"/></g></symbol></svg>