<svg xmlns="http://www.w3.org/2000/svg" xmlns:xlink="http://www.w3.org/1999/xlink" viewBox="0 0 85 85" fill="#fff" fill-rule="evenodd" stroke="#000" stroke-linecap="round" stroke-linejoin="round"><use xlink:href="#A" x="2.5" y="2.5"/><symbol id="A" overflow="visible"><g stroke="none"><path d="M40 0C17.915 0 0 17.915 0 40s17.915 40 40 40 40-17.915 40-40S62.085 0 40 0" fill="#368fb9"/><path d="M63.537 54.394c-2.47.587-3.722 1.128-6.78 3.12-4.772 3.09-9.992 4.525-9.992 4.525s-.432.65-1.683.942c-2.162.525-10.3.973-11.042.988-1.992.016-3.212-.5-3.552-1.328-1.035-2.47 1.483-3.552 1.483-3.552s-.556-.34-.88-.65c-.293-.294-.602-.88-.695-.664-.386.942-.587 3.243-1.622 4.278-1.42 1.436-4.108.958-5.7.123-1.745-.927.124-3.104.124-3.104s-.942.556-1.7-.587c-.68-1.05-1.313-2.842-1.143-5.05.185-2.517 2.996-4.958 2.996-4.958s-.494-3.722 1.127-7.537c1.467-3.475 5.42-6.27 5.42-6.27s-3.32-3.676-2.085-6.98c.803-2.162 1.128-2.147 1.4-2.24.927-.355 1.823-.74 2.486-1.467 3.32-3.583 7.552-2.903 7.552-2.903s2.008-6.1 3.86-4.91c.57.37 2.626 4.942 2.626 4.942s2.193-1.282 2.44-.803c1.328 2.58 1.483 7.506.896 10.502-.988 4.942-3.46 7.6-4.448 9.266-.232.386 2.656 1.606 4.48 6.656 1.683 4.618.185 8.494.448 8.927.046.077.062.108.062.108s1.93.154 5.807-2.24c2.07-1.282 4.525-2.718 7.32-2.75 2.703-.046 2.842 3.12.803 3.614h0zm3.676-2.27c-.278-2.193-2.13-3.707-4.5-3.676-3.552.046-6.533 1.884-8.5 3.104a18.51 18.51 0 0 1-2.008 1.097c.123-1.79.015-4.14-.91-6.718-1.127-3.09-2.64-4.988-3.722-6.085 1.25-1.822 2.965-4.48 3.768-8.587.695-3.506.48-8.958-1.112-12.015-.324-.618-.865-1.066-1.544-1.25-.278-.077-.803-.232-1.838.062-1.56-3.228-2.1-3.568-2.517-3.846-.865-.556-1.884-.68-2.842-.324-1.282.463-2.378 1.7-3.413 3.892a16.13 16.13 0 0 0-.417.942c-1.96.14-5.05.85-7.66 3.676-.324.355-.957.618-1.622.865h.015c-1.36.48-1.977 1.59-2.734 3.598-1.05 2.81.03 5.575 1.097 7.367-1.452 1.297-3.382 3.367-4.402 5.792-1.266 2.996-1.405 5.93-1.36 7.52-1.08 1.143-2.75 3.3-2.934 5.7-.247 3.367.973 5.652 1.514 6.486a4.29 4.29 0 0 0 .51.649c-.062.417-.077.865.015 1.328.2 1.08.88 1.962 1.915 2.517 2.04 1.08 4.88 1.544 7.073.448.788.834 2.224 1.637 4.834 1.637h.154c.664 0 9.097-.448 11.552-1.05 1.096-.263 1.853-.726 2.347-1.143 1.575-.494 5.93-1.977 10.04-4.633 2.904-1.884 3.907-2.286 6.07-2.81 2.1-.5 3.413-2.425 3.15-4.54h0z"/></g></symbol></svg>